<svg xmlns="http://www.w3.org/2000/svg" xmlns:xlink="http://www.w3.org/1999/xlink" fill="none" version="1.1" width="130" height="34" viewBox="0 0 130 34"><defs><clipPath id="master_svg0_6_01"><rect x="0" y="0" width="130" height="34" rx="6"/></clipPath><clipPath id="master_svg1_6_09"><rect x="19" y="7" width="20" height="20" rx="0"/></clipPath></defs><g clip-path="url(#master_svg0_6_01)"><rect x="0" y="0" width="130" height="34" rx="6" fill="#1F883D" fill-opacity="1"/><g><path d="M59.196,14.636L63.522,14.636L63.522,19.466L54.184,19.466L54.184,14.636L57.782,14.636L57.782,10.786L59.196,10.842L59.196,11.99L64.39,11.99L64.39,13.404L59.196,13.404L59.196,14.636ZM55.542,18.094L62.164,18.094L62.164,16.036L55.542,16.036L55.542,18.094ZM63.256,19.634Q64.012,20.810000000000002,64.894,22.588L63.718,23.386Q63.480000000000004,22.756,63.010999999999996,21.853Q62.542,20.95,62.08,20.208L63.256,19.634ZM52.658,22.826Q53.12,22.182000000000002,53.554,21.3Q53.988,20.418,54.254,19.676000000000002L55.472,20.18Q55.206,20.936,54.758,21.874000000000002Q54.31,22.811999999999998,53.89,23.54L52.658,22.826ZM60.428,19.9Q60.708,20.432000000000002,60.981,21.216Q61.254,22,61.436,22.7L60.19,23.134Q60.092,22.560000000000002,59.819,21.776Q59.546,20.992,59.224000000000004,20.278L60.428,19.9ZM57.586,20.026Q57.796,20.656,57.964,21.496000000000002Q58.132,22.336,58.188,22.91L56.858,23.246Q56.732,22.084,56.312,20.292L57.586,20.026ZM79.916,20.516Q79.706,21.258,79.482,21.817999999999998Q79.146,22.630000000000003,78.719,23.008Q78.292,23.386,77.746,23.386Q77.214,23.386,76.759,23.05Q76.304,22.714,75.87,21.986Q75.53399999999999,21.426000000000002,75.324,20.852Q74.02199999999999,21.79,72.538,22.518L71.866,21.244Q73.602,20.432000000000002,74.89,19.494Q74.48400000000001,17.954,74.288,15.882L71.628,15.882L71.628,17.576Q72.832,17.323999999999998,73.56,17.156L73.658,17.856L73.72800000000001,18.5L71.628,18.962L71.628,21.552Q71.628,22.154,71.453,22.476Q71.27799999999999,22.798000000000002,70.9,22.945Q70.52199999999999,23.092,69.822,23.162L69.024,23.246L68.59,21.944000000000003L69.57,21.874000000000002Q69.92,21.846,70.06,21.783Q70.2,21.72,70.235,21.594Q70.27,21.468,70.27,21.16L70.27,19.242Q69.71000000000001,19.368000000000002,69.227,19.459Q68.744,19.55,68.352,19.634L67.834,19.732L67.61,18.346Q68.66,18.164,70.27,17.856L70.27,15.882L67.75,15.882L67.75,14.594000000000001L70.27,14.594000000000001L70.27,13.054Q69.584,13.152000000000001,68.184,13.292L68.072,12.032Q70.774,11.808,73.182,11.206L73.406,12.466000000000001Q72.636,12.661999999999999,71.628,12.844000000000001L71.628,14.594000000000001L74.19,14.594000000000001Q74.162,14.258,74.134,13.614L74.092,12.55L74.008,10.828L75.394,10.884Q75.394,11.584,75.506,13.558Q75.52,13.922,75.576,14.594000000000001L79.762,14.594000000000001L79.762,15.882L75.674,15.882Q75.8,17.492,76.024,18.584Q77.242,17.464,78.124,16.064L79.21600000000001,16.778Q78.026,18.584,76.388,19.997999999999998Q76.668,20.782,77.018,21.3Q77.368,21.902,77.746,21.902Q77.94200000000001,21.902,78.10300000000001,21.72Q78.264,21.538,78.446,20.992Q78.642,20.445999999999998,78.768,19.816000000000003L79.916,20.516ZM78.25,14.370000000000001Q77.788,13.838000000000001,77.144,13.166Q76.5,12.494,75.968,12.004L76.822,11.136Q77.41,11.64,78.054,12.256Q78.69800000000001,12.872,79.104,13.334L78.25,14.370000000000001ZM94.686,12.928L89.086,12.928L89.086,15.532L89.688,14.622Q90.696,15.308,91.98400000000001,16.259999999999998Q93.27199999999999,17.212,93.888,17.758L93.118,19.102Q92.404,18.444000000000003,91.256,17.541Q90.108,16.637999999999998,89.086,15.896L89.086,23.316L87.574,23.316L87.574,12.928L82.646,12.928L82.646,11.542L94.686,11.542L94.686,12.928ZM109.666,20.208Q109.61,20.753999999999998,109.414,21.622Q109.176,22.672,108.78399999999999,23.078Q108.392,23.484,107.818,23.484Q107.27199999999999,23.484,106.87299999999999,23.141Q106.47399999999999,22.798000000000002,106.068,21.986Q105.886,21.538,105.844,21.426000000000002Q105.088,22.252000000000002,104.038,23.162L103.086,22.14Q103.47800000000001,21.846,103.898,21.496000000000002L102.148,21.608L102.148,23.302L100.86,23.302L100.86,21.706Q98.94200000000001,21.86,97.5,21.986L97.416,20.768Q98.186,20.740000000000002,100.86,20.544L100.86,19.689999999999998L98.22800000000001,19.689999999999998L98.22800000000001,18.555999999999997Q98.662,17.926000000000002,99.03999999999999,17.296L97.85,17.296L97.85,16.162L99.656,16.162Q99.97800000000001,15.518,100.09,15.252L97.51400000000001,15.252L97.51400000000001,14.076L100.566,14.076L100.566,13.054L98.256,13.054L98.256,11.948L100.566,11.948L100.566,10.674L101.854,10.73L101.854,11.948L104.136,11.948L104.136,13.054L101.854,13.054L101.854,14.076L104.556,14.076L104.52799999999999,13.418L104.444,10.576L105.75999999999999,10.632Q105.788,11.668,105.858,12.76L105.9,13.655999999999999Q105.9,13.796,105.928,14.076L109.49799999999999,14.076L109.49799999999999,15.252L105.99799999999999,15.252Q106.166,17.156,106.46000000000001,18.584Q107.21600000000001,17.338,107.804,15.588L108.96600000000001,16.078Q108.49000000000001,17.323999999999998,107.98599999999999,18.317999999999998Q107.482,19.311999999999998,106.866,20.18Q107.03399999999999,20.740000000000002,107.244,21.174Q107.566,21.832,107.846,21.832Q108,21.832,108.126,21.601Q108.25200000000001,21.369999999999997,108.35,20.866Q108.434,20.25,108.476,19.619999999999997L109.666,20.208ZM108.056,13.866Q107.09,12.690000000000001,106.082,11.822L106.95,10.968Q108.168,12.004,108.868,12.83L108.056,13.866ZM104.23400000000001,21.216Q104.822,20.698,105.424,20.012Q104.878,17.912,104.654,15.252L100.21600000000001,15.252L101.406,15.532L101.098,16.162L104.262,16.162L104.262,17.296L100.538,17.296Q100.21600000000001,17.884,99.79599999999999,18.528L100.86,18.528L100.86,17.631999999999998L102.148,17.688000000000002L102.148,18.528L104.164,18.528L104.164,19.689999999999998L102.148,19.689999999999998L102.148,20.445999999999998Q102.456,20.418,102.61,20.418Q104.00999999999999,20.32,104.206,20.292L104.22,20.712L104.23400000000001,21.216Z" fill="#FFFFFF" fill-opacity="1"/></g><g clip-path="url(#master_svg1_6_09)"><g><path d="M27.751786984558105,8.168949357444763C28.131396984558105,7.950196357444764,28.561836984558106,7.835042357444763,28.999996984558106,7.835042357444763C29.438166984558105,7.835042357444763,29.868666984558104,7.950205357444763,30.248246984558108,8.168975357444763C30.248836984558103,8.169309357444764,30.249416984558106,8.169644357444763,30.249996984558106,8.169979357444763C30.249996984558106,8.169979357444763,36.083366984558104,11.503302357444763,36.083366984558104,11.503302357444763C36.39166698455811,11.681312357444764,36.6575669845581,11.922622357444762,36.86406698455811,12.210302357444764C36.9143669845581,12.260612357444764,36.9589669845581,12.318232357444764,36.99636698455811,12.382732357444763C37.02846698455811,12.438282357444763,37.053466984558106,12.496012357444762,37.07166698455811,12.554842357444763C37.243066984558105,12.899402357444764,37.332966984558105,13.279562357444764,37.333366984558104,13.665812357444764C37.333366984558104,13.665812357444764,37.333366984558104,20.334242357444765,37.333366984558104,20.334242357444765C37.332966984558105,20.772642357444763,37.217166984558105,21.203242357444765,36.997766984558105,21.582742357444765C36.778366984558104,21.962242357444765,36.46296698455811,22.277442357444762,36.083366984558104,22.496742357444763C36.083366984558104,22.496742357444763,36.0800669845581,22.498542357444762,36.0800669845581,22.498542357444762C36.0800669845581,22.498542357444762,30.249996984558106,25.830042357444764,30.249996984558106,25.830042357444764C30.249496984558107,25.830242357444764,30.248996984558104,25.830642357444763,30.248496984558106,25.830842357444762C29.984166984558108,25.983342357444762,29.695166984558107,26.085342357444762,29.396086984558103,26.133342357444764C29.278246984558105,26.197142357444765,29.143336984558104,26.233242357444762,28.999996984558106,26.233242357444762C28.856646984558104,26.233242357444762,28.721746984558106,26.197142357444765,28.603946984558107,26.133342357444764C28.304866984558107,26.085342357444762,28.015876984558105,25.983342357444762,27.751546984558104,25.830842357444762C27.751026984558106,25.830642357444763,27.750516984558104,25.830242357444764,27.749996984558106,25.830042357444764C27.749996984558106,25.830042357444764,21.919886984558104,22.498542357444762,21.919886984558104,22.498542357444762C21.919886984558104,22.498542357444762,21.916666984558105,22.496742357444763,21.916666984558105,22.496742357444763C21.536991984558107,22.277442357444762,21.221641984558104,21.962242357444765,21.002243984558106,21.582742357444765C20.782844984558107,21.203242357444765,20.667116652558107,20.772642357444763,20.666666984558105,20.334242357444765C20.666666984558105,20.334242357444765,20.666666984558105,13.665812357444764,20.666666984558105,13.665812357444764C20.667063156558104,13.279562357444764,20.756936984558106,12.899402357444764,20.928349984558107,12.554842357444763C20.946512984558105,12.496012357444762,20.971521984558105,12.438292357444762,21.003659984558105,12.382732357444763C21.040970984558104,12.318232357444764,21.085603984558105,12.260612357444764,21.135899984558105,12.210302357444764C21.342446984558105,11.922622357444762,21.608349984558107,11.681312357444764,21.916666984558105,11.503312357444763C21.916666984558105,11.503312357444763,21.919886984558104,11.501462357444764,21.919886984558104,11.501462357444764C21.919886984558104,11.501462357444764,24.627146984558106,9.954452357444763,24.627146984558106,9.954452357444763C24.750136984558104,9.815872357444764,24.913486984558105,9.725412357444764,25.088596984558105,9.690772357444763C25.088596984558105,9.690772357444763,27.751786984558105,8.168949357444763,27.751786984558105,8.168949357444763C27.751786984558105,8.168949357444763,27.751786984558105,8.168949357444763,27.751786984558105,8.168949357444763ZM25.291656984558106,11.494322357444762C25.291656984558106,11.494322357444762,23.199156984558105,12.690032357444764,23.199156984558105,12.690032357444764C23.199156984558105,12.690032357444764,28.999996984558106,16.045612357444764,28.999996984558106,16.045612357444764C28.999996984558106,16.045612357444764,31.088766984558106,14.837332357444764,31.088766984558106,14.837332357444764C31.088766984558106,14.837332357444764,25.291656984558106,11.494322357444762,25.291656984558106,11.494322357444762C25.291656984558106,11.494322357444762,25.291656984558106,11.494322357444762,25.291656984558106,11.494322357444762ZM32.754366984558104,13.873872357444764C32.754366984558104,13.873872357444764,26.967416984558106,10.536742357444764,26.967416984558106,10.536742357444764C26.967416984558106,10.536742357444764,28.580116984558106,9.615202357444764,28.580116984558106,9.615202357444764C28.580116984558106,9.615202357444764,28.583336984558105,9.613352357444763,28.583336984558105,9.613352357444763C28.710016984558106,9.540222357444764,28.853716984558105,9.501712357444763,28.999996984558106,9.501712357444763C29.146246984558104,9.501712357444763,29.289996984558105,9.540222357444764,29.416666984558105,9.613352357444763C29.416666984558105,9.613352357444763,34.800866984558105,12.690032357444764,34.800866984558105,12.690032357444764C34.800866984558105,12.690032357444764,32.754366984558104,13.873872357444764,32.754366984558104,13.873872357444764C32.754366984558104,13.873872357444764,32.754366984558104,13.873872357444764,32.754366984558104,13.873872357444764ZM35.666666984558105,14.114612357444763C35.666666984558105,14.114612357444763,29.833336984558105,17.488962357444763,29.833336984558105,17.488962357444763C29.833336984558105,17.488962357444763,29.833336984558105,24.148542357444764,29.833336984558105,24.148542357444764C29.833336984558105,24.148542357444764,35.24996698455811,21.053342357444762,35.24996698455811,21.053342357444762C35.250366984558106,21.053042357444763,35.250966984558104,21.052842357444764,35.2513669845581,21.052542357444764C35.377266984558105,20.979542357444764,35.48186698455811,20.874742357444763,35.5548669845581,20.748642357444766C35.62796698455811,20.622142357444766,35.666466984558106,20.478642357444762,35.666666984558105,20.332442357444762C35.666666984558105,20.332442357444762,35.666666984558105,14.114612357444763,35.666666984558105,14.114612357444763C35.666666984558105,14.114612357444763,35.666666984558105,14.114612357444763,35.666666984558105,14.114612357444763ZM28.166666984558105,24.148542357444764C28.166666984558105,24.148542357444764,28.166666984558105,17.488962357444763,28.166666984558105,17.488962357444763C28.166666984558105,17.488962357444763,22.333336984558105,14.114612357444763,22.333336984558105,14.114612357444763C22.333336984558105,14.114612357444763,22.333336984558105,20.33284235744476,22.333336984558105,20.33284235744476C22.333546984558104,20.478842357444762,22.372116984558104,20.62224235744476,22.445186984558106,20.748642357444766C22.518076984558107,20.874742357444763,22.622716984558107,20.979542357444764,22.748686984558105,21.052542357444764C22.749126984558107,21.052842357444764,22.749556984558104,21.053042357444763,22.749996984558106,21.053342357444762C22.749996984558106,21.053342357444762,28.166666984558105,24.148542357444764,28.166666984558105,24.148542357444764C28.166666984558105,24.148542357444764,28.166666984558105,24.148542357444764,28.166666984558105,24.148542357444764Z" fill-rule="evenodd" fill="#FFFFFF" fill-opacity="1"/></g></g></g></svg>